<svg width="21" height="22" viewBox="0 0 21 22" fill="none" xmlns="http://www.w3.org/2000/svg">
<path d="M6.625 15H13.888C18.376 15 19.058 12.18 19.886 8.07C20.125 6.883 20.244 6.29 19.957 5.895C19.67 5.5 19.12 5.5 18.019 5.5H4.625" stroke="black" stroke-width="1.5" stroke-linecap="round" stroke-linejoin="round"/>
<path d="M6.625 15L4.004 2.515C3.89585 2.08232 3.64618 1.69821 3.29467 1.4237C2.94316 1.1492 2.50999 1.00007 2.064 1H1.125M7.505 15H7.094C5.73 15 4.625 16.151 4.625 17.571C4.62381 17.6262 4.63349 17.681 4.6535 17.7324C4.67351 17.7838 4.70346 17.8308 4.74162 17.8706C4.77979 17.9105 4.82543 17.9424 4.87594 17.9646C4.92645 17.9868 4.98084 17.9988 5.036 18H16.125" stroke="black" stroke-width="1.5" stroke-linecap="round" stroke-linejoin="round"/>
<path d="M9.125 21C9.95343 21 10.625 20.3284 10.625 19.5C10.625 18.6716 9.95343 18 9.125 18C8.29657 18 7.625 18.6716 7.625 19.5C7.625 20.3284 8.29657 21 9.125 21Z" stroke="black" stroke-width="1.5" stroke-linecap="round" stroke-linejoin="round"/>
<path d="M16.125 21C16.9534 21 17.625 20.3284 17.625 19.5C17.625 18.6716 16.9534 18 16.125 18C15.2966 18 14.625 18.6716 14.625 19.5C14.625 20.3284 15.2966 21 16.125 21Z" stroke="black" stroke-width="1.5" stroke-linecap="round" stroke-linejoin="round"/>
</svg>
